<?xml version="1.0" encoding="UTF-8" ?>
<svg version="1.1" width="32" height="32" xmlns="http://www.w3.org/2000/svg" shape-rendering="crispEdges">
<rect x="6" y="2" width="4" height="2" fill="#CF975B" />
<rect x="16" y="2" width="6" height="2" fill="#CF975B" />
<rect x="6" y="4" width="2" height="6" fill="#B07154" />
<rect x="8" y="4" width="2" height="2" fill="#E8B866" />
<rect x="10" y="4" width="6" height="2" fill="#B07154" />
<rect x="16" y="4" width="2" height="2" fill="#E8B866" />
<rect x="18" y="4" width="4" height="2" fill="#FFCD77" />
<rect x="22" y="4" width="2" height="2" fill="#B07154" />
<rect x="0" y="6" width="6" height="2" fill="#CF975B" />
<rect x="8" y="6" width="4" height="2" fill="#FFCD77" />
<rect x="12" y="6" width="2" height="4" fill="#E8B866" />
<rect x="14" y="6" width="2" height="4" fill="#CF975B" />
<rect x="16" y="6" width="2" height="6" fill="#FFCD77" />
<rect x="18" y="6" width="2" height="2" fill="#CF975B" />
<rect x="20" y="6" width="2" height="2" fill="#FFCD77" />
<rect x="22" y="6" width="2" height="2" fill="#E8B866" />
<rect x="24" y="6" width="8" height="2" fill="#B07154" />
<rect x="0" y="8" width="2" height="2" fill="#CF975B" />
<rect x="2" y="8" width="4" height="2" fill="#FFCD77" />
<rect x="8" y="8" width="2" height="2" fill="#CF975B" />
<rect x="10" y="8" width="2" height="4" fill="#FFCD77" />
<rect x="18" y="8" width="2" height="4" fill="#E8B866" />
<rect x="20" y="8" width="4" height="4" fill="#CF975B" />
<rect x="24" y="8" width="2" height="2" fill="#E8B866" />
<rect x="26" y="8" width="4" height="2" fill="#FFCD77" />
<rect x="30" y="8" width="2" height="2" fill="#B07154" />
<rect x="2" y="10" width="2" height="2" fill="#B07154" />
<rect x="4" y="10" width="2" height="2" fill="#E8B866" />
<rect x="6" y="10" width="2" height="2" fill="#CF975B" />
<rect x="8" y="10" width="2" height="2" fill="#E8B866" />
<rect x="12" y="10" width="2" height="4" fill="#CF975B" />
<rect x="14" y="10" width="2" height="2" fill="#E8B866" />
<rect x="24" y="10" width="2" height="2" fill="#B07154" />
<rect x="26" y="10" width="2" height="2" fill="#CF975B" />
<rect x="28" y="10" width="2" height="4" fill="#974D2B" />
<rect x="4" y="12" width="2" height="4" fill="#B07154" />
<rect x="6" y="12" width="2" height="4" fill="#E8B866" />
<rect x="8" y="12" width="2" height="4" fill="#CF975B" />
<rect x="10" y="12" width="2" height="4" fill="#E8B866" />
<rect x="14" y="12" width="2" height="2" fill="#FFCD77" />
<rect x="16" y="12" width="2" height="2" fill="#E8B866" />
<rect x="18" y="12" width="2" height="4" fill="#B07154" />
<rect x="20" y="12" width="2" height="4" fill="#FFCD77" />
<rect x="22" y="12" width="4" height="2" fill="#E8B866" />
<rect x="26" y="12" width="2" height="6" fill="#B07154" />
<rect x="0" y="14" width="4" height="2" fill="#CF975B" />
<rect x="12" y="14" width="2" height="2" fill="#B07154" />
<rect x="14" y="14" width="2" height="2" fill="#E8B866" />
<rect x="16" y="14" width="2" height="2" fill="#CF975B" />
<rect x="22" y="14" width="2" height="2" fill="#CF975B" />
<rect x="24" y="14" width="2" height="2" fill="#E8B866" />
<rect x="28" y="14" width="2" height="2" fill="#CF975B" />
<rect x="30" y="14" width="2" height="8" fill="#974D2B" />
<rect x="0" y="16" width="2" height="2" fill="#B07154" />
<rect x="2" y="16" width="2" height="2" fill="#E8B866" />
<rect x="4" y="16" width="4" height="2" fill="#FFCD77" />
<rect x="8" y="16" width="2" height="2" fill="#E8B866" />
<rect x="10" y="16" width="2" height="2" fill="#B07154" />
<rect x="12" y="16" width="2" height="2" fill="#E6AC8B" />
<rect x="14" y="16" width="2" height="2" fill="#CF975B" />
<rect x="16" y="16" width="2" height="4" fill="#B07154" />
<rect x="18" y="16" width="2" height="2" fill="#E6AC8B" />
<rect x="20" y="16" width="2" height="2" fill="#E8B866" />
<rect x="22" y="16" width="2" height="2" fill="#B07154" />
<rect x="24" y="16" width="2" height="2" fill="#CF975B" />
<rect x="28" y="16" width="2" height="4" fill="#B07154" />
<rect x="2" y="18" width="2" height="2" fill="#B07154" />
<rect x="4" y="18" width="2" height="4" fill="#CF975B" />
<rect x="6" y="18" width="2" height="2" fill="#B07154" />
<rect x="8" y="18" width="2" height="2" fill="#0F3D61" />
<rect x="10" y="18" width="4" height="2" fill="#2B4B64" />
<rect x="14" y="18" width="2" height="2" fill="#FCC3A2" />
<rect x="18" y="18" width="4" height="2" fill="#2B4B64" />
<rect x="22" y="18" width="2" height="2" fill="#0F3D61" />
<rect x="24" y="18" width="2" height="2" fill="#E6AC8B" />
<rect x="26" y="18" width="2" height="2" fill="#974D2B" />
<rect x="6" y="20" width="2" height="2" fill="#E6AC8B" />
<rect x="8" y="20" width="2" height="2" fill="#FFDFCC" />
<rect x="10" y="20" width="2" height="2" fill="#01CAE9" />
<rect x="12" y="20" width="2" height="2" fill="#FEFEFE" />
<rect x="14" y="20" width="2" height="2" fill="#FFDFCC" />
<rect x="16" y="20" width="2" height="2" fill="#FCC3A2" />
<rect x="18" y="20" width="2" height="2" fill="#01CAE9" />
<rect x="20" y="20" width="2" height="2" fill="#FEFEFE" />
<rect x="22" y="20" width="2" height="4" fill="#FFDFCC" />
<rect x="24" y="20" width="4" height="2" fill="#B07154" />
<rect x="28" y="20" width="2" height="2" fill="#974D2B" />
<rect x="4" y="22" width="2" height="2" fill="#B07154" />
<rect x="8" y="22" width="2" height="2" fill="#FCC3A2" />
<rect x="10" y="22" width="4" height="2" fill="#FFDFCC" />
<rect x="14" y="22" width="4" height="2" fill="#E97B7B" />
<rect x="18" y="22" width="4" height="2" fill="#FFDFCC" />
<rect x="24" y="22" width="2" height="2" fill="#CF975B" />
<rect x="26" y="22" width="2" height="2" fill="#E6AC8B" />
<rect x="28" y="22" width="2" height="2" fill="#B07154" />
<rect x="8" y="24" width="2" height="2" fill="#E6AC8B" />
<rect x="10" y="24" width="2" height="2" fill="#FCC3A2" />
<rect x="12" y="24" width="2" height="2" fill="#FFDFCC" />
<rect x="14" y="24" width="2" height="2" fill="#E97B7B" />
<rect x="16" y="24" width="2" height="2" fill="#C74736" />
<rect x="18" y="24" width="2" height="2" fill="#FFDFCC" />
<rect x="20" y="24" width="2" height="2" fill="#FCC3A2" />
<rect x="22" y="24" width="4" height="2" fill="#E6AC8B" />
<rect x="10" y="26" width="2" height="2" fill="#E6AC8B" />
<rect x="12" y="26" width="8" height="2" fill="#FCC3A2" />
<rect x="20" y="26" width="2" height="2" fill="#E6AC8B" />
</svg>